<?xml version="1.0" encoding="UTF-8" standalone="no"?>
<!DOCTYPE svg PUBLIC "-//W3C//DTD SVG 1.1//EN" "http://www.w3.org/Graphics/SVG/1.1/DTD/svg11.dtd">
<!--Generated by Intaglio, www.PurgatoryDesign.com-->
<svg version="1.1" viewBox="0,0,1080,1440" width="1080" height="1440" xmlns="http://www.w3.org/2000/svg" xmlns:xlink="http://www.w3.org/1999/xlink" xmlns:intaglio="http://purgatorydesign.com/namespaces/intaglio" intaglio:grid="36,36,1,1,0.5,#9999bf,1,0,0,0" intaglio:guides="0.8,#f0f,1,1" intaglio:ruler="1,2,2,1,1,0,0"><g><g><path fill="none" stroke="#616161" stroke-width="5" d="M203.245,66.5473 L258.245,66.5473 L258.245,793.279 L203.245,793.279 L203.245,66.5473 Z"/><g><text fill="#616161" font-family="Avenir" font-weight="900" font-size="18" transform="matrix(1,0,0,1,209.946,764.11)" xml:space="preserve"><tspan>Intro</tspan></text><text fill="#616161" font-family="Avenir" font-weight="900" font-size="14" transform="matrix(1,0,0,1,206.791,783.761)" xml:space="preserve"><tspan>Jan 8</tspan><tspan baseline-shift="super">th</tspan></text></g><g><text fill="#616161" font-family="Avenir" font-weight="900" font-size="14" transform="matrix(1,0,0,1,206.791,87.7784)" xml:space="preserve"><tspan>Jan 8</tspan><tspan baseline-shift="super">th</tspan></text><text fill="#616161" font-family="Avenir" font-weight="900" font-size="18" transform="matrix(1,0,0,1,209.946,111.501)" xml:space="preserve"><tspan>Intro</tspan></text></g></g><g><path fill="none" stroke="#53a0df" stroke-width="5" d="M263.245,66.5473 L456.704,66.5473 L456.704,793.279 L263.245,793.279 L263.245,66.5473 Z"/><g><text fill="#53a0df" font-family="Avenir" font-weight="900" font-size="18" transform="matrix(1,0,0,1,320.482,764.564)" xml:space="preserve"><tspan>open Lab</tspan></text><text fill="#53a0df" font-family="Avenir" font-weight="900" font-size="14" transform="matrix(1,0,0,1,314.649,784.171)" xml:space="preserve"><tspan>Jan 9</tspan><tspan baseline-shift="super">th</tspan><tspan> - 12</tspan><tspan baseline-shift="super">th</tspan></text></g><g><text fill="#53a0df" font-family="Avenir" font-weight="900" font-size="14" transform="matrix(1,0,0,1,314.649,85.8124)" xml:space="preserve"><tspan>Jan 9</tspan><tspan baseline-shift="super">th</tspan><tspan> - 12</tspan><tspan baseline-shift="super">th</tspan></text><text fill="#53a0df" font-family="Avenir" font-weight="900" font-size="18" transform="matrix(1,0,0,1,320.482,109.579)" xml:space="preserve"><tspan>open Lab</tspan></text></g></g><g><path fill="none" stroke="#9e59a2" stroke-width="5" d="M461.704,66.5473 L655.162,66.5473 L655.162,793.279 L461.704,793.279 L461.704,66.5473 Z"/><g><text fill="#9e59a2" font-family="Avenir" font-weight="900" font-size="18" transform="matrix(1,0,0,1,484.768,764.505)" xml:space="preserve"><tspan>microbiology Lab</tspan></text><text fill="#9e59a2" font-family="Avenir" font-weight="900" font-size="14" transform="matrix(1,0,0,1,508.964,784.229)" xml:space="preserve"><tspan>Jan 13</tspan><tspan baseline-shift="super">th</tspan><tspan> - 19</tspan><tspan baseline-shift="super">th</tspan></text></g><g><text fill="#9e59a2" font-family="Avenir" font-weight="900" font-size="14" transform="matrix(1,0,0,1,508.964,85.7632)" xml:space="preserve"><tspan>Jan 13</tspan><tspan baseline-shift="super">th</tspan><tspan> - 19</tspan><tspan baseline-shift="super">th</tspan></text><text fill="#9e59a2" font-family="Avenir" font-weight="900" font-size="18" transform="matrix(1,0,0,1,484.768,109.412)" xml:space="preserve"><tspan>microbiology Lab</tspan></text></g></g><g><path fill="none" stroke="#3cc698" stroke-width="5" d="M660.162,66.5473 L853.621,66.5473 L853.621,793.279 L660.162,793.279 L660.162,66.5473 Z"/><g><text fill="#3cc698" font-family="Avenir" font-weight="900" font-size="18" transform="matrix(1,0,0,1,697.879,764.564)" xml:space="preserve"><tspan>computer Lab</tspan></text><text fill="#3cc698" font-family="Avenir" font-weight="900" font-size="14" transform="matrix(1,0,0,1,707.423,784.171)" xml:space="preserve"><tspan>Jan 20</tspan><tspan baseline-shift="super">th</tspan><tspan> - 25</tspan><tspan baseline-shift="super">th</tspan></text></g><g><text fill="#3cc698" font-family="Avenir" font-weight="900" font-size="14" transform="matrix(1,0,0,1,707.423,85.8124)" xml:space="preserve"><tspan>Jan 20</tspan><tspan baseline-shift="super">th</tspan><tspan> - 25</tspan><tspan baseline-shift="super">th</tspan></text><text fill="#3cc698" font-family="Avenir" font-weight="900" font-size="18" transform="matrix(1,0,0,1,697.879,109.579)" xml:space="preserve"><tspan>computer Lab</tspan></text></g></g></g><path fill="#fffdfd" stroke="#0c0e17" stroke-width="3" d="M183.881,666.537 L901.015,666.537 L901.015,722.455 L183.881,722.455 L183.881,666.537 Z"/><path fill="#fffdfd" stroke="#0c0e17" stroke-width="3" d="M353.623,464.068 L353.623,680.457 L208.278,680.457 L208.278,309.25 L353.623,309.25 L353.623,398.312 Z"/><path fill="#fffdfd" stroke="#0c0e17" stroke-width="3" d="M332.01,536.437 L845.999,536.437 L845.999,641.956 L332.01,641.956 L332.01,536.437 Z"/><path fill="#fffdfd" stroke="#0c0e17" stroke-width="3" d="M323.811,398.312 L438.356,398.312 L438.356,464.068 L323.811,464.068 L323.811,398.312 Z"/><path fill="#fffdfd" stroke="#0c0e17" stroke-width="3" d="M285.055,153.453 L783.744,153.453 L783.744,380.322 L285.055,380.322 L285.055,153.453 Z"/><path fill="#fffdfd" stroke="#0c0e17" stroke-width="3" d="M575.936,610.653 L744.351,610.653 L744.351,651.807 L575.936,651.807 L575.936,610.653 Z"/><path fill="#fffdfd" stroke="#0c0e17" stroke-width="3" d="M271.883,211.546 L417.89,211.546 L417.89,252.7 L271.883,252.7 L271.883,211.546 Z"/><path fill="#fffffe" stroke="#0c0e17" stroke-width="3" d="M389.008,127.275 L680.688,127.275 L680.688,201.389 L389.008,201.389 L389.008,127.275 Z"/><path fill="#fffdfd" stroke="#0c0e17" stroke-width="3" d="M491.322,191.406 L749.126,191.406 L749.126,232.561 L491.322,232.561 L491.322,191.406 Z"/><path fill="#fffdfd" stroke="#0c0e17" stroke-width="3" d="M517.39,360.366 L822.214,360.366 L822.214,503.489 L517.39,503.489 L517.39,360.366 Z"/><path fill="#fffdfd" stroke="#0c0e17" stroke-width="3" d="M573.361,310.178 L831.165,310.178 L831.165,373.259 L573.361,373.259 L573.361,310.178 Z"/><path fill="#fffdfd" stroke="#0c0e17" stroke-width="3" d="M630.322,276.342 L798.737,276.342 L798.737,317.496 L630.322,317.496 L630.322,276.342 Z"/><path fill="#fffdfd" stroke="#0c0e17" stroke-width="3" d="M375.289,495.221 L761.716,495.221 L761.716,550.526 L375.289,550.526 L375.289,495.221 Z"/><text fill="#0c0e16" font-family="Avenir" font-weight="800" font-size="18" transform="matrix(1,0,0,1,500.342,170.659)" xml:space="preserve"><tspan>Bacteria</tspan></text><text fill="#000100" font-family="Avenir" font-weight="800" font-size="18" text-anchor="middle" transform="matrix(1,0,0,1,381.083,425.831)" xml:space="preserve"><tspan>Civic</tspan><tspan x="0" y="26">Engagement</tspan></text><text fill="#000100" font-family="Avenir" font-weight="800" font-size="18" transform="matrix(1,0,0,1,329.316,238.578)" xml:space="preserve"><tspan>HIV</tspan></text><text fill="#000100" font-family="Avenir" font-weight="800" font-size="18" transform="matrix(1,0,0,1,669.024,303.203)" xml:space="preserve"><tspan>Vaccination</tspan></text><text fill="#000100" font-family="Avenir" font-weight="800" font-size="18" transform="matrix(1,0,0,1,457.298,273.255)" xml:space="preserve"><tspan>Infectious diseases</tspan></text><text fill="#000100" font-family="Avenir" font-weight="800" font-size="18" transform="matrix(1,0,0,1,511.538,593.745)" xml:space="preserve"><tspan>Psychophysics Lab</tspan></text><text fill="#000100" font-family="Avenir" font-weight="800" font-size="18" transform="matrix(1,0,0,1,406.155,699.637)" xml:space="preserve"><tspan>Narratives, rhetoric and biases</tspan></text><text fill="#000100" font-family="Avenir" font-weight="800" font-size="18" transform="matrix(1,0,0,1,605.717,635.756)" xml:space="preserve"><tspan>Grant writing</tspan></text><text fill="#000100" font-family="Avenir" font-weight="800" font-size="18" transform="matrix(1,0,0,1,518.04,527.453)" xml:space="preserve"><tspan>Experiments</tspan></text><text fill="#000100" font-family="Avenir" font-weight="800" font-size="18" transform="matrix(1,0,0,1,578.718,217.777)" xml:space="preserve"><tspan>Antibiotics</tspan></text><text fill="#000100" font-family="Avenir" font-weight="800" font-size="18" text-anchor="middle" transform="matrix(1,0,0,1,280.951,481.12)" xml:space="preserve"><tspan>Nature</tspan><tspan x="0" y="26">of</tspan><tspan x="0" y="50">Science</tspan></text><text fill="#000100" font-family="Avenir" font-weight="800" font-size="18" transform="matrix(1,0,0,1,629.45,348.087)" xml:space="preserve"><tspan>Models of disease</tspan></text><text fill="#000100" font-family="Avenir" font-weight="800" font-size="18" transform="matrix(1,0,0,1,615.376,436.454)" xml:space="preserve"><tspan>Data analysis</tspan></text></svg>
